<?xml version="1.0" encoding="UTF-8"?>
<svg version="1.1" xmlns="http://www.w3.org/2000/svg" width="546" height="546">
<path d="M0 0 C3.13447621 1.7408543 6.02548416 3.68092401 8.88671875 5.83984375 C12.3734143 8.3628598 16.19324706 10.16058837 20.03320312 12.08056641 C21.6084689 12.91337773 23.18130475 13.750798 24.75195312 14.59228516 C32.04407032 18.47361879 39.38976871 22.25201759 46.72851562 26.04418945 C52.41677134 28.98736008 58.09414688 31.94902395 63.75805664 34.9387207 C74.30765404 40.5070109 84.90946112 45.96781615 95.53320312 51.39306641 C107.74943539 57.63155725 119.92524699 63.93877277 132.05322266 70.34729004 C147.67334406 78.59744911 163.3883392 86.66129145 179.11114502 94.71328735 C192.45119386 101.54582884 205.75772892 108.43543836 219.03320312 115.39306641 C225.96320313 119.02306641 232.89320313 122.65306641 240.03320312 126.39306641 C240.03320312 160.38306641 240.03320312 194.37306641 240.03320312 229.39306641 C221.68107547 239.71613821 221.68107547 239.71613821 215.26367188 242.85791016 C214.53231522 243.2209877 213.80095856 243.58406525 213.04743958 243.95814514 C210.77381875 245.08629612 208.49754475 246.20893213 206.22070312 247.33056641 C203.21268809 248.81582478 200.20614597 250.30400881 197.20117188 251.79541016 C196.45044403 252.16797943 195.69971619 252.54054871 194.92623901 252.92440796 C189.45816003 255.65125751 184.04490345 258.47253562 178.64648438 261.33447266 C168.02950178 266.96174246 157.27701545 272.30469764 146.51269531 277.64306641 C136.44283797 282.64090177 126.42976264 287.72343007 116.49414062 292.98364258 C111.04554959 295.86754678 105.56594662 298.67364514 100.03320312 301.39306641 C93.5681771 304.59770201 87.15530137 307.88255228 80.78320312 311.26806641 C73.58779144 315.08949514 66.32930377 318.76777858 59.03320312 322.39306641 C52.01406487 325.88311502 45.02058315 329.40679278 38.09570312 333.08056641 C29.69577905 337.53641642 21.25893632 341.91904643 12.80953979 346.28018188 C11.29782479 347.06075466 9.78652955 347.84214094 8.27566528 348.62435913 C6.14387301 349.72781593 4.01062336 350.82840246 1.87695312 351.92822266 C1.23092636 352.26316742 0.5848996 352.59811218 -0.08070374 352.94320679 C-2.6894439 354.28433403 -5.17826021 355.46355418 -7.96679688 356.39306641 C-10.35742188 355.44360352 -10.35742188 355.44360352 -13.21679688 353.92041016 C-14.28704102 353.35725098 -15.35728516 352.7940918 -16.45996094 352.21386719 C-17.6172168 351.59237793 -18.77447266 350.97088867 -19.96679688 350.33056641 C-21.17425191 349.69133756 -22.38226876 349.05316892 -23.59082031 348.41601562 C-26.11348815 347.08508486 -28.63364148 345.74955156 -31.15234375 344.41113281 C-37.14840781 341.23114151 -43.18566341 338.1308683 -49.21679688 335.01806641 C-61.99294335 328.40458512 -61.99294335 328.40458512 -68.14624023 325.09619141 C-73.44758058 322.24990339 -78.76629731 319.46306522 -84.15429688 316.78369141 C-84.83864304 316.44240204 -85.5229892 316.10111267 -86.22807312 315.7494812 C-88.47385173 314.62974517 -90.72028158 313.51132362 -92.96679688 312.39306641 C-94.54601126 311.60650844 -96.12519364 310.8198862 -97.7043457 310.03320312 C-98.9090728 309.43304886 -98.9090728 309.43304886 -100.13813782 308.82077026 C-103.49915434 307.14597488 -106.85963288 305.47010198 -110.2199707 303.79394531 C-111.9204566 302.94621667 -113.62130083 302.09920642 -115.32250977 301.25292969 C-126.90666221 295.48928152 -138.40010274 289.57781308 -149.83340454 283.52069092 C-155.17443961 280.69763678 -160.53926675 277.92018093 -165.90429688 275.14306641 C-166.50465759 274.83213043 -167.10501831 274.52119446 -167.72357178 274.20083618 C-178.14615498 268.80668628 -188.63048107 263.54444659 -199.13720703 258.31640625 C-207.21684822 254.28861746 -215.23147286 250.15701175 -223.20117188 245.91650391 C-226.84424058 243.97906797 -230.50380201 242.07558251 -234.16992188 240.18212891 C-235.22590576 239.63572754 -236.28188965 239.08932617 -237.36987305 238.52636719 C-239.43887174 237.45677432 -241.50929699 236.3899354 -243.58129883 235.32617188 C-244.51417725 234.84293457 -245.44705566 234.35969727 -246.40820312 233.86181641 C-247.24037354 233.43320312 -248.07254395 233.00458984 -248.92993164 232.56298828 C-250.96679688 231.39306641 -250.96679688 231.39306641 -252.96679688 229.39306641 C-253.23523903 227.55234814 -253.23523903 227.55234814 -253.26113892 225.27592468 C-253.27544952 224.41374329 -253.28976013 223.55156189 -253.30450439 222.66325378 C-253.3098822 221.71517349 -253.31526001 220.7670932 -253.32080078 219.7902832 C-253.33394318 218.79340485 -253.34708557 217.79652649 -253.36062622 216.7694397 C-253.40014699 213.46038538 -253.423428 210.15151273 -253.44335938 206.84228516 C-253.45151043 205.71400614 -253.45966148 204.58572712 -253.46805954 203.42325783 C-253.50980298 197.4523453 -253.53839745 191.48152502 -253.55712891 185.51049805 C-253.57927241 179.33591473 -253.64807912 173.16277024 -253.72747231 166.9886961 C-253.77970647 162.24721049 -253.79650346 157.50607033 -253.80369186 152.76432228 C-253.81344846 150.48803798 -253.83674768 148.21177037 -253.87376785 145.93576622 C-253.92235676 142.75068837 -253.92066285 139.56936642 -253.90673828 136.3840332 C-253.9323584 135.4420256 -253.95797852 134.50001801 -253.984375 133.52946472 C-253.94266207 130.91440613 -253.83107977 128.86334841 -252.96679688 126.39306641 C-250.56055822 124.09064275 -247.98571404 122.74844306 -244.96679688 121.39306641 C-244.06985107 120.89460205 -243.17290527 120.3961377 -242.2487793 119.88256836 C-241.04765503 119.26321411 -241.04765503 119.26321411 -239.82226562 118.63134766 C-238.90912598 118.15802002 -237.99598633 117.68469238 -237.05517578 117.19702148 C-236.09788574 116.70484131 -235.1405957 116.21266113 -234.15429688 115.70556641 C-232.08250824 114.63298587 -230.01089575 113.56006503 -227.93945312 112.48681641 C-226.91996582 111.95958984 -225.90047852 111.43236328 -224.85009766 110.88916016 C-220.91918696 108.84948016 -217.0055983 106.77781334 -213.09179688 104.70556641 C-200.87341608 98.25449593 -188.5704221 91.96580371 -176.28411865 85.64547729 C-168.11716747 81.44315229 -159.96030576 77.22140643 -151.80371094 72.99902344 C-145.51698387 69.74498342 -139.22811821 66.49516784 -132.93554688 63.25244141 C-115.66707964 54.35401621 -115.66707964 54.35401621 -98.46435547 45.3293457 C-89.76627079 40.73758376 -81.01032382 36.25763044 -72.26330566 31.7600708 C-61.34178654 26.15021914 -61.34178654 26.15021914 -50.46679688 20.45092773 C-49.05777543 19.70805097 -47.64370065 18.97467579 -46.22460938 18.2512207 C-41.89903044 16.02947222 -37.71747815 13.64977972 -33.57077026 11.1139679 C-9.17314641 -3.70738746 -9.17314641 -3.70738746 0 0 Z M-15.64257812 106.62744141 C-16.30759842 106.97251236 -16.97261871 107.31758331 -17.65779114 107.67311096 C-19.86888434 108.82239653 -22.07393515 109.98282617 -24.27929688 111.14306641 C-25.83791238 111.9554042 -27.39700373 112.76682959 -28.95654297 113.57739258 C-31.41364958 114.85480243 -33.87032682 116.13299164 -36.32543945 117.41423035 C-44.72813638 121.79923851 -53.16448933 126.11755251 -61.60333252 130.4324646 C-68.72868486 134.07780472 -75.84746599 137.73598446 -82.96679688 141.39306641 C-83.64405823 141.7408313 -84.32131958 142.08859619 -85.019104 142.44689941 C-89.15056724 144.56888112 -93.27848284 146.69761374 -97.40429688 148.83056641 C-98.86730225 149.58237183 -98.86730225 149.58237183 -100.35986328 150.34936523 C-108.46369083 154.38670777 -108.46369083 154.38670777 -115.96679688 159.39306641 C-115.96679688 160.05306641 -115.96679688 160.71306641 -115.96679688 161.39306641 C-115.06662842 161.85567871 -114.16645996 162.31829102 -113.23901367 162.79492188 C-109.79599165 164.56466684 -106.35360421 166.33564336 -102.91137695 168.10693359 C-101.44083812 168.86343794 -99.97014274 169.61963808 -98.49926758 170.37548828 C-90.17353598 174.65418786 -81.86558954 178.96349161 -73.58789062 183.33447266 C-63.06266923 188.89005468 -52.46783473 194.30673164 -41.86816406 199.71850586 C-40.22351318 200.55853843 -38.57956804 201.39995422 -36.93634033 202.24276733 C-35.31514795 203.06986792 -33.68978852 203.88885465 -32.0602417 204.69937134 C-28.05761833 206.70800285 -24.25712384 208.80542025 -20.53417969 211.29882812 C-14.62207475 215.18365125 -14.62207475 215.18365125 -7.96679688 217.39306641 C-2.60920489 216.21001149 1.30624056 213.76440537 5.84417725 210.76794434 C9.76388426 208.3060645 13.9527683 206.38248482 18.11523438 204.36962891 C19.89181668 203.48660578 21.66719735 202.60116116 23.44140625 201.71337891 C26.13852864 200.36786682 28.83592758 199.02293065 31.53442383 197.68017578 C41.95533775 192.4939226 52.32335613 187.22770033 62.61010742 181.77972412 C68.14505564 178.85016016 73.71997569 176.01959424 79.34570312 173.26806641 C87.42885647 169.27428134 95.27704917 164.99025699 103.03320312 160.39306641 C100.50667344 157.48636755 97.72197877 156.07192544 94.28320312 154.38916016 C93.12691406 153.81842773 91.970625 153.24769531 90.77929688 152.65966797 C90.16812012 152.36129028 89.55694336 152.0629126 88.92724609 151.75549316 C85.72720168 150.19280068 82.53686547 148.61051546 79.34570312 147.02978516 C78.3946167 146.55951401 78.3946167 146.55951401 77.42431641 146.07974243 C72.24952073 143.51545236 67.1295043 140.85929354 62.03320312 138.14306641 C55.74528508 134.79717057 49.41363987 131.5590304 43.03320312 128.39306641 C36.47141749 125.13474781 29.94981364 121.81298736 23.47070312 118.39306641 C22.3171936 117.78519287 22.3171936 117.78519287 21.14038086 117.16503906 C17.00171511 114.97859048 12.87614188 112.76963417 8.75976562 110.54150391 C7.89552979 110.07744141 7.03129395 109.61337891 6.14086914 109.13525391 C4.48133596 108.24380203 2.82536969 107.34566807 1.17358398 106.43994141 C0.42729736 106.04033203 -0.31898926 105.64072266 -1.08789062 105.22900391 C-1.74200928 104.87370605 -2.39612793 104.5184082 -3.07006836 104.15234375 C-7.92948107 102.2070775 -11.43014801 104.38780876 -15.64257812 106.62744141 Z " fill="#000000" transform="translate(274.966796875,26.60693359375)"/>
<path d="M0 0 C0 35.97 0 71.94 0 109 C-13.53 115.93 -27.06 122.86 -41 130 C-51.82648684 135.77223257 -51.82648684 135.77223257 -62.6328125 141.58203125 C-69.01092705 145.0208281 -75.43740946 148.36170877 -81.875 151.6875 C-89.55388333 155.65648234 -97.17831362 159.7052168 -104.75 163.875 C-113.26061723 168.56122594 -121.85958984 173.05964496 -130.5 177.5 C-140.0807431 182.42370135 -149.59094189 187.45374017 -159.02856445 192.64794922 C-168.393832 197.79187288 -177.87564254 202.70549754 -187.35986328 207.62548828 C-190.41038266 209.213654 -193.45071409 210.82028534 -196.48876953 212.43212891 C-198.70355482 213.60406672 -200.9236325 214.76547309 -203.14453125 215.92578125 C-206.5502386 217.70593697 -209.94581148 219.50372658 -213.33349609 221.31787109 C-217.47065951 223.53257446 -221.61887944 225.72548899 -225.77288818 227.90841675 C-227.45934644 228.79931044 -229.14206492 229.69732154 -230.82086182 230.60256958 C-233.20050578 231.88422732 -235.59233501 233.13977182 -237.98828125 234.390625 C-238.70634445 234.78481125 -239.42440765 235.1789975 -240.16423035 235.58512878 C-243.65723982 237.37682907 -245.25303467 238.14442353 -249.20727539 237.37988281 C-250.12887451 236.92452148 -251.05047363 236.46916016 -252 236 C-252.78648926 235.61392578 -253.57297852 235.22785156 -254.38330078 234.83007812 C-255.14626465 234.40146484 -255.90922852 233.97285156 -256.6953125 233.53125 C-257.56567139 233.04769043 -258.43603027 232.56413086 -259.33276367 232.06591797 C-260.25420166 231.54916504 -261.17563965 231.03241211 -262.125 230.5 C-269.40744812 226.46893688 -276.72358733 222.55968834 -284.1875 218.875 C-296.13730851 212.96548457 -307.90965826 206.74667663 -319.64453125 200.421875 C-322.03356015 199.13487 -324.42291185 197.84846633 -326.8125 196.5625 C-327.412901 196.23926758 -328.013302 195.91603516 -328.63189697 195.58300781 C-337.36020787 190.88930243 -346.16318494 186.37591518 -355.05175781 181.99243164 C-362.40958315 178.34396235 -369.61448301 174.44822841 -376.80859375 170.48852539 C-383.13090502 167.0106897 -389.48337576 163.59880783 -395.875 160.25 C-396.6575415 159.83878906 -397.44008301 159.42757812 -398.24633789 159.00390625 C-403.34447233 156.34117967 -408.47787478 153.75372392 -413.625 151.1875 C-421.82212109 147.10042815 -429.9818639 142.94349788 -438.125 138.75 C-439.19134674 138.20123703 -439.19134674 138.20123703 -440.27923584 137.64138794 C-451.83625943 131.68855719 -463.28525733 125.5613063 -474.66650391 119.27832031 C-478.98633703 116.91185806 -483.34123469 114.61072867 -487.70166016 112.32006836 C-491.89528121 110.10471879 -491.89528121 110.10471879 -493 109 C-493.0954693 107.59588683 -493.12188529 106.18700191 -493.12025452 104.77964783 C-493.12162918 103.86954453 -493.12300385 102.95944122 -493.12442017 102.02175903 C-493.12082489 101.01547455 -493.11722961 100.00919006 -493.11352539 98.97241211 C-493.11367142 97.91888046 -493.11381744 96.86534882 -493.1139679 95.77989197 C-493.11326826 92.279022 -493.10547348 88.77820448 -493.09765625 85.27734375 C-493.09579225 82.85738657 -493.09436826 80.43742901 -493.09336853 78.01747131 C-493.08954192 71.63384976 -493.07971041 65.25025079 -493.06866455 58.86663818 C-493.05845351 52.35836086 -493.05387157 45.8500799 -493.04882812 39.34179688 C-493.03808827 26.56118825 -493.02120112 13.78059533 -493 1 C-489.48909946 2.14546187 -486.24251149 3.25664859 -483.0390625 5.1015625 C-481.97449829 5.70641479 -481.97449829 5.70641479 -480.88842773 6.32348633 C-480.14149658 6.75298584 -479.39456543 7.18248535 -478.625 7.625 C-472.95887583 10.82744218 -467.27869975 13.94101163 -461.4375 16.8125 C-446.61688565 24.11710743 -431.96942929 31.77308811 -417.5 39.75 C-407.54070037 45.23955263 -397.44015753 50.43482421 -387.31884766 55.61669922 C-378.98303136 59.88662892 -370.68952285 64.20363155 -362.5 68.75 C-347.59258838 77.00885604 -332.32642696 84.60197503 -317.14752197 92.34532166 C-309.84506832 96.07311401 -302.5699451 99.85045668 -295.30883789 103.65820312 C-289.87542186 106.50537236 -284.43050031 109.32912074 -278.9765625 112.13671875 C-278.27626923 112.49735916 -277.57597595 112.85799957 -276.85446167 113.22956848 C-273.39214528 115.01228073 -269.92891075 116.79317616 -266.46435547 118.5715332 C-265.19495779 119.22471542 -263.92558802 119.87795186 -262.65625 120.53125 C-261.54056641 121.10423828 -260.42488281 121.67722656 -259.27539062 122.26757812 C-256.88154468 123.53373278 -254.5613303 124.84011656 -252.23266602 126.21557617 C-249.26826568 128.18655937 -249.26826568 128.18655937 -246.62109375 128.01953125 C-242.64414166 126.4726095 -238.86152048 124.62712642 -235.0625 122.6875 C-234.17989502 122.24164551 -233.29729004 121.79579102 -232.38793945 121.33642578 C-225.17656937 117.66497487 -218.08017177 113.7979799 -210.99511719 109.88989258 C-202.83881311 105.41071518 -194.58813307 101.12799563 -186.3125 96.875 C-185.64016327 96.52945068 -184.96782654 96.18390137 -184.27511597 95.82788086 C-181.63223212 94.46978255 -178.98933178 93.11171643 -176.34623718 91.75402832 C-171.29765221 89.15854894 -166.26785095 86.52930977 -161.25 83.875 C-153.76967569 79.9200977 -146.26350107 76.01649241 -138.75 72.125 C-136.4283811 70.92188333 -134.1067665 69.71875837 -131.78515625 68.515625 C-128.4910378 66.80863455 -125.19680875 65.10186287 -121.90185547 63.39648438 C-112.80625753 58.68634417 -103.71952676 53.97206871 -94.75708008 49.01220703 C-81.87033147 41.88176535 -68.75630786 35.21976806 -55.63186646 28.54031372 C-44.22311695 22.73173636 -32.86821069 16.86913977 -21.66723633 10.66699219 C-2.40073078 0 -2.40073078 0 0 0 Z " fill="#000000" transform="translate(515,305)"/>
</svg>
